<svg width="550" height="96" viewBox="0 0 550 96" fill="none" xmlns="http://www.w3.org/2000/svg">
<rect width="550" height="96" rx="20" fill="#FFFFFF"/>
<rect x="166" y="50" width="350" height="8" rx="4" fill="#D1D1D1"/>
<path d="M172.753 46.1278C172.264 46.1259 171.844 46.0057 171.491 45.767C171.141 45.5284 170.871 45.1828 170.682 44.7301C170.494 44.2775 170.402 43.733 170.403 43.0966C170.403 42.4621 170.497 41.9214 170.685 41.4744C170.874 41.0275 171.144 40.6875 171.494 40.4545C171.847 40.2197 172.266 40.1023 172.753 40.1023C173.24 40.1023 173.658 40.2197 174.009 40.4545C174.361 40.6894 174.632 41.0303 174.821 41.4773C175.01 41.9223 175.104 42.4621 175.102 43.0966C175.102 43.7348 175.008 44.2803 174.818 44.733C174.631 45.1856 174.362 45.5312 174.011 45.7699C173.661 46.0085 173.241 46.1278 172.753 46.1278ZM172.753 45.108C173.086 45.108 173.352 44.9403 173.551 44.6051C173.75 44.2699 173.848 43.767 173.847 43.0966C173.847 42.6553 173.801 42.2879 173.71 41.9943C173.621 41.7008 173.494 41.4801 173.33 41.3324C173.167 41.1847 172.974 41.1108 172.753 41.1108C172.421 41.1108 172.156 41.2765 171.957 41.608C171.759 41.9394 171.658 42.4356 171.656 43.0966C171.656 43.5436 171.701 43.9167 171.79 44.2159C171.881 44.5133 172.009 44.7367 172.173 44.8864C172.338 45.0341 172.531 45.108 172.753 45.108ZM178.261 46.1278C177.772 46.1259 177.352 46.0057 176.999 45.767C176.649 45.5284 176.379 45.1828 176.19 44.7301C176.002 44.2775 175.909 43.733 175.911 43.0966C175.911 42.4621 176.005 41.9214 176.192 41.4744C176.382 41.0275 176.652 40.6875 177.002 40.4545C177.354 40.2197 177.774 40.1023 178.261 40.1023C178.747 40.1023 179.166 40.2197 179.516 40.4545C179.869 40.6894 180.139 41.0303 180.329 41.4773C180.518 41.9223 180.612 42.4621 180.61 43.0966C180.61 43.7348 180.515 44.2803 180.326 44.733C180.138 45.1856 179.87 45.5312 179.519 45.7699C179.169 46.0085 178.749 46.1278 178.261 46.1278ZM178.261 45.108C178.594 45.108 178.86 44.9403 179.059 44.6051C179.258 44.2699 179.356 43.767 179.354 43.0966C179.354 42.6553 179.309 42.2879 179.218 41.9943C179.129 41.7008 179.002 41.4801 178.837 41.3324C178.674 41.1847 178.482 41.1108 178.261 41.1108C177.929 41.1108 177.664 41.2765 177.465 41.608C177.266 41.9394 177.166 42.4356 177.164 43.0966C177.164 43.5436 177.209 43.9167 177.298 44.2159C177.388 44.5133 177.516 44.7367 177.681 44.8864C177.846 45.0341 178.039 45.108 178.261 45.108ZM182.206 45.3239C182.018 45.3239 181.857 45.2576 181.723 45.125C181.59 44.9924 181.524 44.8314 181.524 44.642C181.524 44.4564 181.59 44.2973 181.723 44.1648C181.857 44.0322 182.018 43.9659 182.206 43.9659C182.388 43.9659 182.547 44.0322 182.683 44.1648C182.82 44.2973 182.888 44.4564 182.888 44.642C182.888 44.767 182.856 44.8816 182.791 44.9858C182.729 45.0881 182.646 45.1705 182.544 45.233C182.442 45.2936 182.329 45.3239 182.206 45.3239ZM182.206 42.4688C182.018 42.4688 181.857 42.4025 181.723 42.2699C181.59 42.1373 181.524 41.9763 181.524 41.7869C181.524 41.6013 181.59 41.4432 181.723 41.3125C181.857 41.1799 182.018 41.1136 182.206 41.1136C182.388 41.1136 182.547 41.1799 182.683 41.3125C182.82 41.4432 182.888 41.6013 182.888 41.7869C182.888 41.9138 182.856 42.0294 182.791 42.1335C182.729 42.2358 182.646 42.3172 182.544 42.3778C182.442 42.4384 182.329 42.4688 182.206 42.4688ZM186.151 46.1278C185.663 46.1259 185.242 46.0057 184.89 45.767C184.54 45.5284 184.27 45.1828 184.08 44.7301C183.893 44.2775 183.8 43.733 183.802 43.0966C183.802 42.4621 183.896 41.9214 184.083 41.4744C184.272 41.0275 184.542 40.6875 184.893 40.4545C185.245 40.2197 185.665 40.1023 186.151 40.1023C186.638 40.1023 187.057 40.2197 187.407 40.4545C187.759 40.6894 188.03 41.0303 188.219 41.4773C188.409 41.9223 188.503 42.4621 188.501 43.0966C188.501 43.7348 188.406 44.2803 188.217 44.733C188.029 45.1856 187.76 45.5312 187.41 45.7699C187.059 46.0085 186.64 46.1278 186.151 46.1278ZM186.151 45.108C186.485 45.108 186.751 44.9403 186.95 44.6051C187.148 44.2699 187.247 43.767 187.245 43.0966C187.245 42.6553 187.2 42.2879 187.109 41.9943C187.02 41.7008 186.893 41.4801 186.728 41.3324C186.565 41.1847 186.373 41.1108 186.151 41.1108C185.82 41.1108 185.555 41.2765 185.356 41.608C185.157 41.9394 185.057 42.4356 185.055 43.0966C185.055 43.5436 185.099 43.9167 185.188 44.2159C185.279 44.5133 185.407 44.7367 185.572 44.8864C185.737 45.0341 185.93 45.108 186.151 45.108ZM191.659 46.1278C191.17 46.1259 190.75 46.0057 190.398 45.767C190.047 45.5284 189.777 45.1828 189.588 44.7301C189.401 44.2775 189.308 43.733 189.31 43.0966C189.31 42.4621 189.403 41.9214 189.591 41.4744C189.78 41.0275 190.05 40.6875 190.401 40.4545C190.753 40.2197 191.172 40.1023 191.659 40.1023C192.146 40.1023 192.564 40.2197 192.915 40.4545C193.267 40.6894 193.538 41.0303 193.727 41.4773C193.917 41.9223 194.01 42.4621 194.009 43.0966C194.009 43.7348 193.914 44.2803 193.724 44.733C193.537 45.1856 193.268 45.5312 192.918 45.7699C192.567 46.0085 192.148 46.1278 191.659 46.1278ZM191.659 45.108C191.992 45.108 192.259 44.9403 192.457 44.6051C192.656 44.2699 192.755 43.767 192.753 43.0966C192.753 42.6553 192.707 42.2879 192.616 41.9943C192.527 41.7008 192.401 41.4801 192.236 41.3324C192.073 41.1847 191.881 41.1108 191.659 41.1108C191.328 41.1108 191.063 41.2765 190.864 41.608C190.665 41.9394 190.564 42.4356 190.562 43.0966C190.562 43.5436 190.607 43.9167 190.696 44.2159C190.787 44.5133 190.915 44.7367 191.08 44.8864C191.244 45.0341 191.438 45.108 191.659 45.108Z" fill="black"/>
<path d="M491.753 46.1278C491.264 46.1259 490.844 46.0057 490.491 45.767C490.141 45.5284 489.871 45.1828 489.682 44.7301C489.494 44.2775 489.402 43.733 489.403 43.0966C489.403 42.4621 489.497 41.9214 489.685 41.4744C489.874 41.0275 490.144 40.6875 490.494 40.4545C490.847 40.2197 491.266 40.1023 491.753 40.1023C492.24 40.1023 492.658 40.2197 493.009 40.4545C493.361 40.6894 493.632 41.0303 493.821 41.4773C494.01 41.9223 494.104 42.4621 494.102 43.0966C494.102 43.7348 494.008 44.2803 493.818 44.733C493.631 45.1856 493.362 45.5312 493.011 45.7699C492.661 46.0085 492.241 46.1278 491.753 46.1278ZM491.753 45.108C492.086 45.108 492.352 44.9403 492.551 44.6051C492.75 44.2699 492.848 43.767 492.847 43.0966C492.847 42.6553 492.801 42.2879 492.71 41.9943C492.621 41.7008 492.494 41.4801 492.33 41.3324C492.167 41.1847 491.974 41.1108 491.753 41.1108C491.421 41.1108 491.156 41.2765 490.957 41.608C490.759 41.9394 490.658 42.4356 490.656 43.0966C490.656 43.5436 490.701 43.9167 490.79 44.2159C490.881 44.5133 491.009 44.7367 491.173 44.8864C491.338 45.0341 491.531 45.108 491.753 45.108ZM497.085 40.1023C497.384 40.1023 497.672 40.1525 497.948 40.2528C498.227 40.3532 498.475 40.5133 498.692 40.733C498.912 40.9527 499.085 41.2443 499.212 41.608C499.341 41.9697 499.406 42.4138 499.408 42.9403C499.408 43.4347 499.353 43.8759 499.241 44.2642C499.131 44.6506 498.973 44.9792 498.766 45.25C498.56 45.5208 498.311 45.7273 498.019 45.8693C497.728 46.0095 497.402 46.0795 497.042 46.0795C496.654 46.0795 496.311 46.0047 496.013 45.8551C495.716 45.7036 495.477 45.4981 495.295 45.2386C495.115 44.9773 495.006 44.6837 494.968 44.358H496.181C496.228 44.5701 496.328 44.7348 496.479 44.8523C496.631 44.9678 496.818 45.0256 497.042 45.0256C497.421 45.0256 497.709 44.8608 497.906 44.5312C498.103 44.1998 498.202 43.7462 498.204 43.1705H498.164C498.077 43.3409 497.96 43.4877 497.812 43.6108C497.664 43.732 497.495 43.8258 497.303 43.892C497.114 43.9583 496.912 43.9915 496.698 43.9915C496.355 43.9915 496.049 43.911 495.781 43.75C495.512 43.589 495.299 43.3674 495.144 43.0852C494.989 42.803 494.911 42.4811 494.911 42.1193C494.909 41.7292 494.999 41.3816 495.181 41.0767C495.363 40.7718 495.617 40.5331 495.942 40.3608C496.27 40.1866 496.651 40.1004 497.085 40.1023ZM497.093 41.0682C496.902 41.0682 496.731 41.1136 496.582 41.2045C496.434 41.2955 496.317 41.4176 496.229 41.571C496.144 41.7244 496.103 41.8958 496.104 42.0852C496.104 42.2765 496.146 42.4489 496.229 42.6023C496.315 42.7538 496.43 42.875 496.576 42.9659C496.724 43.0549 496.892 43.0994 497.082 43.0994C497.224 43.0994 497.355 43.0729 497.477 43.0199C497.598 42.9669 497.703 42.8939 497.792 42.8011C497.883 42.7064 497.954 42.5975 498.005 42.4744C498.056 42.3513 498.082 42.2206 498.082 42.0824C498.08 41.8987 498.036 41.7301 497.951 41.5767C497.866 41.4233 497.748 41.3002 497.599 41.2074C497.449 41.1146 497.281 41.0682 497.093 41.0682ZM500.979 45.3239C500.792 45.3239 500.631 45.2576 500.496 45.125C500.364 44.9924 500.298 44.8314 500.298 44.642C500.298 44.4564 500.364 44.2973 500.496 44.1648C500.631 44.0322 500.792 43.9659 500.979 43.9659C501.161 43.9659 501.32 44.0322 501.457 44.1648C501.593 44.2973 501.661 44.4564 501.661 44.642C501.661 44.767 501.629 44.8816 501.565 44.9858C501.502 45.0881 501.42 45.1705 501.317 45.233C501.215 45.2936 501.103 45.3239 500.979 45.3239ZM500.979 42.4688C500.792 42.4688 500.631 42.4025 500.496 42.2699C500.364 42.1373 500.298 41.9763 500.298 41.7869C500.298 41.6013 500.364 41.4432 500.496 41.3125C500.631 41.1799 500.792 41.1136 500.979 41.1136C501.161 41.1136 501.32 41.1799 501.457 41.3125C501.593 41.4432 501.661 41.6013 501.661 41.7869C501.661 41.9138 501.629 42.0294 501.565 42.1335C501.502 42.2358 501.42 42.3172 501.317 42.3778C501.215 42.4384 501.103 42.4688 500.979 42.4688ZM505.175 40.1818V46H503.945V41.3494H503.911L502.578 42.1847V41.0938L504.018 40.1818H505.175ZM506.469 44.9773V44.0085L508.898 40.1818H509.734V41.5227H509.239L507.708 43.946V43.9915H511.16V44.9773H506.469ZM509.262 46V44.6818L509.285 44.2528V40.1818H510.438V46H509.262Z" fill="black"/>
<circle cx="142" cy="48" r="14" fill="#D1D1D1"/>
<path fill-rule="evenodd" clip-rule="evenodd" d="M148.813 47.9999L138.033 53.8799V42.1199L148.813 47.9999ZM138.523 53.0542L147.79 47.9999L138.523 42.9455V53.0542Z" fill="#49bce3da"/>
<path d="M138.523 53.0542L147.79 47.9999L138.523 42.9455V53.0542Z" fill="#49bce3da"/>
<rect x="30" y="14" width="69" height="69" rx="8.625" fill="#49BCE3"/>
</svg>
