<svg width="36" height="36" viewBox="0 0 36 36" fill="none" xmlns="http://www.w3.org/2000/svg">
<g clip-path="url(#clip0_9_1447)">
<rect width="36" height="36" rx="18" fill="white"/>
<circle cx="18" cy="18" r="18" fill="#DEF4FF"/>
<path d="M25.6787 13.9063C25.6787 13.9063 26.9531 13.7515 27.0683 14.9647C27.1835 16.1779 26.7767 17.1103 26.0207 17.5135C26.0207 17.5135 25.8587 17.5927 25.4879 17.6575L25.6787 13.9099V13.9063Z" fill="#FFB69F"/>
<path d="M11.2607 13.9063C11.2607 13.9063 9.98631 13.7515 9.87111 14.9647C9.75591 16.1779 10.1627 17.1103 10.9187 17.5135C10.9187 17.5135 11.0807 17.5927 11.4515 17.6575L11.2607 13.9099V13.9063Z" fill="#FFB69F"/>
<path d="M1.07996 37.7028C1.07996 37.7028 1.07996 32.6124 4.06076 31.608C7.04156 30.6036 13.7772 26.748 13.7772 26.748H18.3348V37.7028H1.07996Z" fill="#F49037"/>
<path d="M35.3085 37.7028C35.3085 37.7028 35.3085 32.6124 32.3277 31.608C29.3469 30.6036 22.6833 26.748 22.6833 26.748H18.0537V37.7028H35.3085Z" fill="#F49037"/>
<path d="M14.9112 23.2268L14.49 26.7476H21.8988L21.438 23.2268H14.9112Z" fill="#FFB69F"/>
<path d="M18.1944 28.8541C20.2403 28.8541 21.8988 28.1337 21.8988 27.2449C21.8988 26.3562 20.2403 25.6357 18.1944 25.6357C16.1485 25.6357 14.49 26.3562 14.49 27.2449C14.49 28.1337 16.1485 28.8541 18.1944 28.8541Z" fill="#FFB69F"/>
<path d="M14.6302 25.5813C14.6302 25.5813 19.6883 26.0457 21.4702 23.8281V21.2793L15.0586 21.8949L14.6302 25.5813Z" fill="#FF9988"/>
<path d="M18.4968 24.2495C22.5746 24.2495 25.8804 20.0234 25.8804 14.8103C25.8804 9.59717 22.5746 5.37109 18.4968 5.37109C14.4189 5.37109 11.1132 9.59717 11.1132 14.8103C11.1132 20.0234 14.4189 24.2495 18.4968 24.2495Z" fill="#FFB69F"/>
<path d="M24.9444 7.27214C24.9444 7.27214 24.9516 7.25414 24.9444 7.24334C24.6996 6.65654 24.4008 3.70814 19.5984 3.26174C18.3672 3.14654 16.6068 3.35174 15.4908 3.88454C13.9608 4.61174 12.2508 5.02934 10.7388 5.02574C10.674 5.02574 10.6488 5.11214 10.7064 5.14454L11.8872 6.08414C11.934 6.10934 11.9304 6.17774 11.88 6.19934L10.3968 6.64934C10.3428 6.67094 10.3428 6.75014 10.3968 6.76814C10.638 6.84734 11.25 7.11734 11.8044 7.30814C10.8972 8.91373 11.106 11.2213 11.106 13.9933C11.106 13.9933 11.0772 16.8661 12.0456 20.1601C13.104 23.7601 15.426 25.3045 18.6984 25.3153C22.1832 25.3297 24.0012 22.3417 24.4872 21.2797C25.2288 19.6525 25.866 16.6285 25.8696 14.8105C25.8696 14.8105 27.2088 10.2169 24.9372 7.27214H24.9444ZM21.9852 20.6101C21.2652 20.9773 21.6288 19.0657 20.196 18.9865C19.7172 18.9577 18.09 18.8461 16.722 18.9613C15.6816 19.0513 15.4296 19.9873 15.3828 20.4625C15.3612 20.6677 15.2892 20.7613 15.0948 20.6893C14.6628 20.5309 13.7448 20.0197 13.3128 19.5445C12.8664 19.0549 12.06 17.7337 11.9844 14.9437L12.0636 10.9585C12.0636 10.9585 13.6656 9.61574 13.9428 8.66174C13.9428 8.66174 21.0996 9.80654 23.1732 8.66174C23.1732 8.66174 24.0408 10.3213 24.9876 10.8217C25.2792 10.9729 25.2288 12.8665 25.2036 14.1733C25.1784 14.3497 25.1568 14.5513 25.146 14.7889C24.9552 18.5221 22.698 20.2465 21.9816 20.6137L21.9852 20.6101Z" fill="#B54D4D"/>
<path d="M21.9853 15.566C22.2259 15.566 22.4209 15.2275 22.4209 14.81C22.4209 14.3924 22.2259 14.054 21.9853 14.054C21.7447 14.054 21.5497 14.3924 21.5497 14.81C21.5497 15.2275 21.7447 15.566 21.9853 15.566Z" fill="#441D39"/>
<path d="M15.4511 15.4112C15.6917 15.4112 15.8867 15.0727 15.8867 14.6552C15.8867 14.2376 15.6917 13.8992 15.4511 13.8992C15.2105 13.8992 15.0155 14.2376 15.0155 14.6552C15.0155 15.0727 15.2105 15.4112 15.4511 15.4112Z" fill="#441D39"/>
<path d="M19.0044 18.2086H18.3168C18.0108 18.2086 17.7408 18.0898 17.5968 17.8918C17.4924 17.7514 17.4636 17.5858 17.514 17.4238C17.6688 16.927 17.8704 15.073 17.8704 15.055C17.8812 14.9542 17.9676 14.8858 18.0684 14.8966C18.1656 14.9074 18.2376 14.9974 18.2268 15.0946C18.2196 15.1738 18.018 16.999 17.856 17.5318C17.8416 17.5858 17.8488 17.6326 17.8848 17.683C17.9604 17.7838 18.1296 17.8522 18.3168 17.8522H19.0044C19.1052 17.8522 19.1844 17.9314 19.1844 18.0322C19.1844 18.133 19.1052 18.2122 19.0044 18.2122V18.2086Z" fill="#FF9988"/>
<path d="M22.3666 16.7506C23.0605 16.7506 23.623 16.6216 23.623 16.4626C23.623 16.3035 23.0605 16.1746 22.3666 16.1746C21.6727 16.1746 21.1102 16.3035 21.1102 16.4626C21.1102 16.6216 21.6727 16.7506 22.3666 16.7506Z" fill="#FF9988"/>
<path d="M15.0334 16.7506C15.7273 16.7506 16.2898 16.6216 16.2898 16.4626C16.2898 16.3035 15.7273 16.1746 15.0334 16.1746C14.3395 16.1746 13.777 16.3035 13.777 16.4626C13.777 16.6216 14.3395 16.7506 15.0334 16.7506Z" fill="#FF9988"/>
<path d="M23.5114 13.0532C22.3126 12.7004 21.3946 12.9236 20.8366 12.9956C20.599 13.0244 20.5486 12.7328 20.5486 12.7328C20.5018 12.5348 20.7682 12.398 20.9554 12.362C21.5854 12.2468 22.3918 12.1892 23.587 12.6032C23.8174 12.6824 23.8318 12.8768 23.8318 12.8768C23.8066 13.0928 23.6698 13.0964 23.5114 13.0496V13.0532Z" fill="#B54D4D"/>
<path d="M13.8598 13.0752C15.0514 12.7008 15.973 12.9096 16.531 12.9708C16.7686 12.996 16.8154 12.7044 16.8154 12.7044C16.8586 12.5064 16.5886 12.3732 16.4014 12.3408C15.7678 12.2364 14.9614 12.1896 13.777 12.6252C13.5466 12.708 13.5358 12.9024 13.5358 12.9024C13.5646 13.1184 13.7014 13.1184 13.8562 13.0716L13.8598 13.0752Z" fill="#B54D4D"/>
<path d="M18.4571 21.1322C17.6075 21.1322 16.9307 20.9522 16.8875 20.9414C16.7903 20.9162 16.7363 20.8154 16.7615 20.7218C16.7867 20.6282 16.8875 20.5706 16.9811 20.5958C16.9991 20.5994 18.6551 21.0386 19.9907 20.5166C20.0843 20.4806 20.1887 20.5274 20.2247 20.6174C20.2607 20.711 20.2139 20.8154 20.1239 20.8514C19.5731 21.0674 18.9827 21.1358 18.4607 21.1358L18.4571 21.1322Z" fill="#9B3D3D"/>
<path d="M14.6483 25.5991L17.5139 27.6439L16.1279 30.9631L12.4199 27.5107L14.6483 25.5991Z" fill="#FFA242"/>
<path d="M17.514 27.644L17.6868 28.8716L17.0352 28.7888L17.514 27.644Z" fill="#F49037"/>
<path d="M19.1485 27.5793L18.8965 28.8717L19.6021 28.7529L19.1485 27.5793Z" fill="#F49037"/>
<path d="M19.1484 27.5793L21.7728 25.6533L24.2316 27.6261L20.574 31.2801L19.1484 27.5793Z" fill="#FFA242"/>
<path d="M18.8928 29.3433H17.6868V37.6989H18.8928V29.3433Z" fill="white"/>
<path d="M17.6614 28.6994L17.6866 29.4338C17.6866 29.4338 18.2482 29.6786 18.8926 29.4338L18.9106 28.7678L17.6578 28.6958L17.6614 28.6994Z" fill="#FFB69F"/>
<path d="M18.8928 31.1074H17.6868V31.4674H18.8928V31.1074Z" fill="#D6D6D6"/>
<path d="M18.8928 32.731H17.6868V33.091H18.8928V32.731Z" fill="#D6D6D6"/>
<path d="M18.8928 34.3545H17.6868V34.7145H18.8928V34.3545Z" fill="#D6D6D6"/>
<path d="M18.8928 35.978H17.6868V36.338H18.8928V35.978Z" fill="#D6D6D6"/>
<path d="M19.9189 33.0806C20.0938 33.0806 20.2357 32.9388 20.2357 32.7638C20.2357 32.5889 20.0938 32.447 19.9189 32.447C19.7439 32.447 19.6021 32.5889 19.6021 32.7638C19.6021 32.9388 19.7439 33.0806 19.9189 33.0806Z" fill="#FFA242"/>
<path d="M19.9189 36.615C20.0938 36.615 20.2357 36.4732 20.2357 36.2982C20.2357 36.1233 20.0938 35.9814 19.9189 35.9814C19.7439 35.9814 19.6021 36.1233 19.6021 36.2982C19.6021 36.4732 19.7439 36.615 19.9189 36.615Z" fill="#FFA242"/>
</g>
<defs>
<clipPath id="clip0_9_1447">
<rect width="36" height="36" rx="18" fill="white"/>
</clipPath>
</defs>
</svg>
