<svg width="73" height="71" viewBox="0 0 73 71" fill="none" xmlns="http://www.w3.org/2000/svg">
<ellipse cx="36.1711" cy="39.6868" rx="36.0462" ry="30.8968" fill="#AFAFAF"/>
<ellipse cx="36.1711" cy="31.7292" rx="36.0462" ry="31.677" fill="#E5E5E5"/>
<path fill-rule="evenodd" clip-rule="evenodd" d="M35.1602 18.6372C34.0773 18.7671 33.0404 19.1319 32.137 19.7011C31.6347 20.0176 30.716 20.8829 30.38 21.356C29.9011 22.0305 29.5748 22.739 29.3628 23.5653C29.2661 23.9421 29.2535 24.1791 29.2324 26.0078L29.2091 28.033H28.6511C28.3183 28.033 27.9695 28.0633 27.7868 28.1081C26.8878 28.3287 26.1953 28.9831 25.9598 29.8344C25.843 30.257 25.843 41.5196 25.9598 41.9421C26.1953 42.7935 26.8878 43.4478 27.7868 43.6684C28.0553 43.7343 29.0571 43.7436 35.8899 43.7436C44.4705 43.7436 43.9652 43.7611 44.6014 43.4416C45.2001 43.1411 45.7157 42.4745 45.8446 41.8342C45.8789 41.6639 45.8978 39.533 45.8978 35.8428C45.8978 29.6103 45.9091 29.8634 45.6055 29.299C45.4193 28.9529 44.9666 28.5182 44.6014 28.3349C44.1596 28.1131 43.7689 28.033 43.1288 28.033H42.5708L42.5475 26.0078C42.5264 24.1791 42.5138 23.9421 42.4171 23.5653C42.0938 22.3056 41.5319 21.354 40.5879 20.4676C39.6198 19.5587 38.608 19.0302 37.2973 18.7487C36.8622 18.6553 35.5713 18.5879 35.1602 18.6372ZM36.7773 20.7873C37.268 20.8853 37.8979 21.1266 38.2828 21.3641C39.2958 21.989 40.0506 23.0429 40.264 24.1301C40.2981 24.3034 40.3205 25.137 40.3205 26.2255V28.033H35.8899H31.4594L31.4603 26.2042C31.4613 24.2071 31.4788 24.0431 31.7661 23.3432C32.2888 22.07 33.5181 21.0929 34.9778 20.7903C35.3929 20.7043 36.3534 20.7027 36.7773 20.7873Z" fill="#AFAFAF"/>
</svg>
