<svg width="122" height="114" viewBox="0 0 122 114" fill="none" xmlns="http://www.w3.org/2000/svg">
<ellipse cx="60.9333" cy="60.9334" rx="43.872" ry="35.3413" fill="#3CA332"/>
<ellipse cx="60.9333" cy="51.1841" rx="43.872" ry="35.3413" fill="#4BCB41"/>
<path fill-rule="evenodd" clip-rule="evenodd" d="M59.7404 34.2275C59.6121 34.2842 59.4495 34.3966 59.3793 34.4773C59.309 34.558 58.1759 36.8121 56.8614 39.4863C55.5468 42.1605 54.449 44.3719 54.4218 44.4005C54.3947 44.4291 51.9219 44.8078 48.9268 45.242C45.0463 45.8047 43.4141 46.0705 43.2479 46.1667C42.7229 46.4711 42.4938 47.2571 42.7734 47.7949C42.8335 47.9104 44.4527 49.5339 46.3715 51.4026C48.2903 53.2713 50.062 55.0056 50.3084 55.2566L50.7565 55.7129L49.8228 61.1579C48.8402 66.8874 48.8463 66.8303 49.1586 67.3069C49.3515 67.6012 49.8712 67.8275 50.2553 67.7841C50.4923 67.7575 51.9317 67.0389 55.416 65.2083C58.0736 63.812 60.2848 62.6695 60.3296 62.6695C60.3745 62.6695 62.5745 63.8071 65.2185 65.1976C67.8626 66.588 70.1348 67.7474 70.2678 67.774C70.6521 67.8509 71.0338 67.7403 71.3221 67.4684C71.8439 66.9763 71.8616 67.2012 70.8242 61.1528L69.8913 55.7136L70.2616 55.3342C70.4652 55.1255 72.2371 53.391 74.1991 51.4799C76.161 49.5687 77.8152 47.9105 77.8749 47.795C78.154 47.2553 77.925 46.4724 77.3981 46.1647C77.2284 46.0655 75.6558 45.809 71.7193 45.2384C68.7251 44.8044 66.2531 44.4266 66.226 44.3989C66.1988 44.3712 65.101 42.1605 63.7864 39.4863C62.4718 36.8121 61.3387 34.5579 61.2685 34.4772C60.9741 34.1387 60.2206 34.0155 59.7404 34.2275Z" fill="white"/>
<path d="M116.992 56.668C116.992 84.9455 92.2329 108.461 60.9333 108.461C29.6338 108.461 4.87467 84.9455 4.87467 56.668C4.87467 28.3904 29.6338 4.87467 60.9333 4.87467C92.2329 4.87467 116.992 28.3904 116.992 56.668Z" stroke="#E5E5E5" stroke-width="9.74933"/>
</svg>
