<svg width="83" height="78" viewBox="0 0 83 78" fill="none" xmlns="http://www.w3.org/2000/svg">
<path opacity="0.5" d="M82.239 0.52694L62.1127 71.825C62.0104 72.1487 61.6011 72.2458 61.3623 72.0192L47.8879 59.2354L57.9852 23.5054C58.0875 23.1818 57.7805 22.8905 57.4394 22.9876L19.7794 32.5674L6.3733 19.8483C6.13452 19.6218 6.23685 19.2334 6.57797 19.1363L81.6932 0.00911414C82.0343 -0.055614 82.3413 0.235663 82.239 0.52694Z" fill="#5E80F6"/>
<path opacity="0.5" d="M47.8873 59.2349L42.7023 77.6825C42.5999 78.0061 42.1906 78.1032 41.9518 77.8766L0.130137 38.2306C-0.108649 38.0041 -0.0063122 37.6157 0.334811 37.5186L19.7788 32.5669L47.8873 59.2349Z" fill="#5E80F6"/>
<path d="M57.9836 23.5046L47.8863 59.2345L19.7778 32.5665L57.4378 22.9867C57.7789 22.8896 58.0859 23.1809 57.9836 23.5046Z" fill="#5E80F6"/>
</svg>
