<svg width="73" height="72" viewBox="0 0 73 72" fill="none" xmlns="http://www.w3.org/2000/svg">
<ellipse cx="36.5925" cy="40.576" rx="36.0462" ry="30.8968" fill="#AFAFAF"/>
<ellipse cx="36.5925" cy="32.6179" rx="36.0462" ry="31.677" fill="#E5E5E5"/>
<path fill-rule="evenodd" clip-rule="evenodd" d="M27.9064 22.2572L27.8907 22.9753L25.0323 22.9899L22.174 23.0045V23.6419C22.174 25.5503 22.6694 27.8102 23.4337 29.3879C24.4038 31.3906 25.8601 32.7398 27.7219 33.3611C28.5274 33.6298 29.1292 33.7194 30.179 33.7265L31.1156 33.7328L31.4801 34.1834C32.3228 35.2251 33.4175 36.1153 34.4327 36.5843L34.9028 36.8014V38.8577V40.9139H32.8189H30.7349V42.2093V43.5047H30.0309H29.3269V44.2369V44.9691H36.5924H43.858V44.2369V43.5047H43.154H42.45V42.2093V40.9139H40.366H38.2821V38.8577V36.8014L38.7522 36.5843C39.7674 36.1153 40.8621 35.2251 41.7048 34.1834L42.0693 33.7328L43.0059 33.7265C44.0567 33.7193 44.6591 33.6296 45.463 33.3605C46.5483 32.9972 47.3097 32.5171 48.1691 31.6539C48.8208 30.9994 49.31 30.2988 49.7512 29.3879C50.5155 27.8102 51.0109 25.5503 51.0109 23.6419V23.0045L48.1526 22.9899L45.2942 22.9753L45.2785 22.2572L45.2627 21.5391H36.5924H27.9222L27.9064 22.2572ZM28.1001 25.6787C28.3603 27.798 28.8391 29.5341 29.6105 31.1561L29.9387 31.846H29.7517C29.5034 31.846 28.6936 31.6945 28.3412 31.5821C26.7622 31.0785 25.5305 29.7588 24.8026 27.7908C24.5058 26.9883 24.1465 25.4408 24.1455 24.9599C24.1452 24.8667 24.2635 24.8615 26.0743 24.8754L28.0033 24.8902L28.1001 25.6787ZM49.0397 24.9691C49.0397 25.2366 48.8023 26.4177 48.625 27.0328C48.16 28.6459 47.3865 29.9467 46.433 30.7196C46.0523 31.0282 45.2915 31.4414 44.8437 31.583C44.486 31.6959 43.6789 31.846 43.4288 31.846H43.2373L43.4845 31.3532C44.2945 29.7384 44.8657 27.6898 45.0982 25.5661C45.1356 25.2254 45.1774 24.9275 45.1913 24.9043C45.2051 24.8811 46.0766 24.8621 47.128 24.8621C48.9688 24.8621 49.0397 24.866 49.0397 24.9691Z" fill="#AFAFAF"/>
</svg>
