<svg width="71" height="20" viewBox="0 0 71 20" fill="none" xmlns="http://www.w3.org/2000/svg">
<path d="M17.7525 5.74215C17.5738 5.59292 17.3566 5.49694 17.126 5.46517C16.8953 5.4334 16.6603 5.46711 16.4478 5.56246L12.4947 7.32028L10.1978 3.17965C10.0881 2.98634 9.929 2.82557 9.73687 2.71373C9.54474 2.60189 9.3264 2.54297 9.10409 2.54297C8.88178 2.54297 8.66344 2.60189 8.47131 2.71373C8.27918 2.82557 8.12012 2.98634 8.01034 3.17965L5.71346 7.32028L1.76034 5.56246C1.54745 5.46725 1.31218 5.43349 1.08111 5.465C0.850039 5.49651 0.632393 5.59203 0.452773 5.74077C0.273153 5.8895 0.138723 6.08552 0.0646786 6.30666C-0.00936533 6.5278 -0.02007 6.76524 0.0337749 6.99215L2.01815 15.4531C2.05609 15.6169 2.1269 15.7713 2.22627 15.9069C2.32565 16.0426 2.45152 16.1566 2.59627 16.2421C2.79225 16.3595 3.01631 16.4215 3.24471 16.4218C3.35574 16.4216 3.46619 16.4059 3.57284 16.375C7.18989 15.3749 11.0105 15.3749 14.6275 16.375C14.9578 16.4618 15.309 16.414 15.6041 16.2421C15.7497 16.1577 15.8763 16.044 15.9758 15.9082C16.0753 15.7724 16.1456 15.6174 16.1822 15.4531L18.1744 6.99215C18.2276 6.76518 18.2163 6.52785 18.1418 6.30696C18.0672 6.08608 17.9324 5.89044 17.7525 5.74215Z" fill="#F2C94C"/>
<path d="M27.6276 15.3124C27.6476 15.3946 27.6838 15.4719 27.7342 15.5398C27.7846 15.6077 27.8481 15.6649 27.9209 15.7078C27.9937 15.7508 28.0744 15.7787 28.1582 15.79C28.242 15.8012 28.3272 15.7956 28.4088 15.7733C32.133 14.7422 36.0674 14.7422 39.7916 15.7733C39.8732 15.7956 39.9584 15.8012 40.0422 15.79C40.1261 15.7787 40.2068 15.7508 40.2796 15.7078C40.3524 15.6649 40.4159 15.6077 40.4663 15.5398C40.5166 15.4719 40.5529 15.3946 40.5729 15.3124L42.5651 6.85148C42.5924 6.73823 42.5876 6.61958 42.5511 6.50894C42.5146 6.3983 42.4479 6.30006 42.3585 6.22532C42.2691 6.15057 42.1607 6.10229 42.0453 6.08593C41.93 6.06957 41.8123 6.08578 41.7057 6.13273L37.7526 7.89054C37.6093 7.9536 37.4478 7.96136 37.2992 7.9123C37.1506 7.86324 37.0254 7.76086 36.9479 7.62491L34.651 3.48429C34.597 3.3866 34.5177 3.30517 34.4216 3.24847C34.3254 3.19177 34.2158 3.16187 34.1041 3.16187C33.9925 3.16187 33.8829 3.19177 33.7867 3.24847C33.6905 3.30517 33.6113 3.3866 33.5573 3.48429L31.2604 7.62491C31.1828 7.76086 31.0577 7.86324 30.9091 7.9123C30.7605 7.96136 30.5989 7.9536 30.4557 7.89054L26.5026 6.13273C26.3959 6.08578 26.2783 6.06957 26.163 6.08593C26.0476 6.10229 25.9391 6.15057 25.8498 6.22532C25.7604 6.30006 25.6937 6.3983 25.6572 6.50894C25.6207 6.61958 25.6158 6.73823 25.6432 6.85148L27.6276 15.3124Z" stroke="white" stroke-width="1.29236" stroke-linecap="round" stroke-linejoin="round"/>
<path d="M31.6038 12.6328C33.2656 12.4531 34.9419 12.4531 36.6038 12.6328" stroke="white" stroke-width="1.29236" stroke-linecap="round" stroke-linejoin="round"/>
<path d="M53.6276 15.3124C53.6476 15.3946 53.6838 15.4719 53.7342 15.5398C53.7846 15.6077 53.8481 15.6649 53.9209 15.7078C53.9937 15.7508 54.0744 15.7787 54.1582 15.79C54.242 15.8012 54.3272 15.7956 54.4088 15.7733C58.133 14.7422 62.0674 14.7422 65.7916 15.7733C65.8732 15.7956 65.9584 15.8012 66.0422 15.79C66.1261 15.7787 66.2068 15.7508 66.2796 15.7078C66.3524 15.6649 66.4159 15.6077 66.4663 15.5398C66.5166 15.4719 66.5529 15.3946 66.5729 15.3124L68.5651 6.85148C68.5924 6.73823 68.5876 6.61958 68.5511 6.50894C68.5146 6.3983 68.4479 6.30006 68.3585 6.22532C68.2691 6.15057 68.1607 6.10229 68.0453 6.08593C67.93 6.06957 67.8123 6.08578 67.7057 6.13273L63.7526 7.89054C63.6093 7.9536 63.4478 7.96136 63.2992 7.9123C63.1506 7.86324 63.0254 7.76086 62.9479 7.62491L60.651 3.48429C60.597 3.3866 60.5177 3.30517 60.4216 3.24847C60.3254 3.19177 60.2158 3.16187 60.1041 3.16187C59.9925 3.16187 59.8829 3.19177 59.7867 3.24847C59.6905 3.30517 59.6113 3.3866 59.5573 3.48429L57.2604 7.62491C57.1828 7.76086 57.0577 7.86324 56.9091 7.9123C56.7605 7.96136 56.5989 7.9536 56.4557 7.89054L52.5026 6.13273C52.3959 6.08578 52.2783 6.06957 52.163 6.08593C52.0476 6.10229 51.9391 6.15057 51.8498 6.22532C51.7604 6.30006 51.6937 6.3983 51.6572 6.50894C51.6207 6.61958 51.6158 6.73823 51.6432 6.85148L53.6276 15.3124Z" stroke="white" stroke-width="1.29236" stroke-linecap="round" stroke-linejoin="round"/>
<path d="M57.6038 12.6328C59.2656 12.4531 60.9419 12.4531 62.6038 12.6328" stroke="white" stroke-width="1.29236" stroke-linecap="round" stroke-linejoin="round"/>
</svg>
