<svg width="73" height="71" viewBox="0 0 73 71" fill="none" xmlns="http://www.w3.org/2000/svg">
<ellipse cx="36.3263" cy="39.6868" rx="36.0462" ry="30.8968" fill="#AFAFAF"/>
<ellipse cx="36.3263" cy="31.7297" rx="36.0462" ry="31.677" fill="#E5E5E5"/>
<path fill-rule="evenodd" clip-rule="evenodd" d="M25.9412 17.5988C24.9099 17.6631 23.6171 17.8745 22.6964 18.1294C21.9193 18.3447 21.8143 18.4746 21.7775 19.267L21.7517 19.8198L20.5102 19.8214C19.177 19.8232 19.0866 19.8468 18.9004 20.2416C18.7838 20.4888 18.7942 44.1293 18.9111 44.384C18.9578 44.486 19.1094 44.6297 19.2479 44.7033L19.4997 44.8371L20.3765 44.4313C25.0167 42.2844 30.1349 41.8142 35.3988 43.0512L36.3363 43.2715L37.2466 43.0561C38.3672 42.791 39.7498 42.5572 40.7916 42.4567C42.3638 42.305 45.2416 42.3984 46.6032 42.6453C48.8796 43.0581 50.5742 43.5872 52.3627 44.4434C53.2398 44.8633 53.4167 44.8732 53.6924 44.5179L53.8628 44.2984V32.3523C53.8628 19.3618 53.8851 20.1045 53.4883 19.9085C53.3704 19.8502 52.887 19.8198 52.0802 19.8198H50.8516V19.2583C50.8516 18.627 50.793 18.4568 50.5245 18.3083C50.0329 18.0365 48.1679 17.6992 46.5987 17.5984C42.6199 17.3429 39.2983 18.4011 36.8592 20.7012L36.3143 21.215L35.8226 20.7172C34.3699 19.2459 32.2576 18.2043 29.8762 17.785C29.234 17.6719 27.4147 17.5094 27.0362 17.5313C26.9421 17.5367 26.4493 17.5671 25.9412 17.5988ZM29.7252 19.2914C31.9946 19.7623 33.6981 20.6432 35.0774 22.0591L35.659 22.656V31.8131C35.659 36.8495 35.643 40.9702 35.6234 40.9702C35.6038 40.9702 35.4576 40.8808 35.2983 40.7715C34.1746 40 32.2411 39.2921 30.3828 38.9718C28.3036 38.6135 26.4252 38.5821 23.6657 38.8594L23.1354 38.9128V29.228V19.5433L23.6999 19.4251C24.1999 19.3206 24.858 19.2155 25.599 19.122C25.7308 19.1054 26.5468 19.1022 27.4125 19.1149C28.6512 19.1332 29.1439 19.1707 29.7252 19.2914ZM48.0848 19.2581C48.5015 19.3249 48.9942 19.4201 49.1798 19.4698L49.5171 19.56L49.5345 29.2364L49.5518 38.9128L49.0212 38.8603C47.466 38.7065 46.8807 38.672 45.8141 38.6708C42.6735 38.6677 39.9068 39.3154 37.7292 40.5638L37.0277 40.9659V31.8125V22.6591L37.4896 22.1669C39.0894 20.4624 40.9575 19.5944 44.0423 19.1222C44.5296 19.0476 47.3657 19.143 48.0848 19.2581ZM21.8351 30.6778V40.0517L21.9785 40.2187C22.1977 40.4738 22.3915 40.5231 22.872 40.4461C23.904 40.2809 25.6643 40.1546 26.9335 40.1549C28.8147 40.1553 30.3996 40.3784 31.8951 40.8533L32.4768 41.0381L31.8266 40.9856C30.7977 40.9026 27.8282 40.9317 27.0019 41.033C24.8762 41.2934 22.5798 41.8967 20.6546 42.7003L20.1926 42.8931V32.0985V21.304H21.0139H21.8351V30.6778ZM52.494 32.0985V42.8931L52.0321 42.7028C49.8026 41.7843 47.3282 41.1785 44.9378 40.9661C43.998 40.8825 41.4166 40.9078 40.5179 41.0094C40.2607 41.0385 40.3003 41.014 40.7574 40.861C41.5255 40.6039 42.8693 40.3246 43.8347 40.2213C44.8656 40.111 47.8934 40.1769 49.0381 40.3345C50.0177 40.4694 50.4023 40.4784 50.5881 40.3706C50.9293 40.1726 50.92 40.4463 50.92 30.5458V21.304H51.707H52.494V32.0985Z" fill="#AFAFAF"/>
<path d="M48.0848 19.2581C48.5015 19.3249 48.9942 19.4201 49.1798 19.4698L49.5171 19.56L49.5345 29.2364L49.5518 38.9128L49.0212 38.8603C47.466 38.7065 46.8807 38.672 45.8141 38.6708C42.6735 38.6677 39.9068 39.3154 37.7292 40.5638L37.0277 40.9659V31.8125V22.6591L37.4896 22.1669C39.0894 20.4624 40.9575 19.5944 44.0423 19.1222C44.5296 19.0476 47.3657 19.143 48.0848 19.2581Z" fill="#D8D8D8"/>
<path d="M29.7252 19.2914C31.9946 19.7623 33.6981 20.6432 35.0774 22.0591L35.659 22.656V31.8131C35.659 36.8495 35.643 40.9702 35.6234 40.9702C35.6038 40.9702 35.4576 40.8808 35.2983 40.7715C34.1746 40 32.2411 39.2921 30.3828 38.9718C28.3036 38.6135 26.4252 38.5821 23.6657 38.8594L23.1354 38.9128V29.228V19.5433L23.6999 19.4251C24.1999 19.3206 24.858 19.2155 25.599 19.122C25.7308 19.1054 26.5468 19.1022 27.4125 19.1149C28.6512 19.1332 29.1439 19.1707 29.7252 19.2914Z" fill="#D8D8D8"/>
<path d="M52.494 32.0985V42.8931L52.0321 42.7028C49.8026 41.7843 47.3282 41.1785 44.9378 40.9661C43.998 40.8825 41.4166 40.9078 40.5179 41.0094C40.2607 41.0385 40.3003 41.014 40.7574 40.861C41.5255 40.6039 42.8693 40.3246 43.8347 40.2213C44.8656 40.111 47.8934 40.1769 49.0381 40.3345C50.0177 40.4694 50.4023 40.4784 50.5881 40.3706C50.9293 40.1726 50.92 40.4463 50.92 30.5458V21.304H51.707H52.494V32.0985Z" fill="#AFAFAF"/>
<path d="M21.8351 30.6778V40.0517L21.9785 40.2187C22.1977 40.4738 22.3915 40.5231 22.872 40.4461C23.904 40.2809 25.6643 40.1546 26.9335 40.1549C28.8147 40.1553 30.3996 40.3784 31.8951 40.8533L32.4768 41.0381L31.8266 40.9856C30.7977 40.9026 27.8282 40.9317 27.0019 41.033C24.8762 41.2934 22.5798 41.8967 20.6546 42.7003L20.1926 42.8931V32.0985V21.304H21.0139H21.8351V30.6778Z" fill="#AFAFAF"/>
</svg>
